<?xml version="1.0" standalone="no"?>
<!DOCTYPE svg PUBLIC "-//W3C//DTD SVG 20010904//EN"
 "http://www.w3.org/TR/2001/REC-SVG-20010904/DTD/svg10.dtd">
<svg version="1.0" xmlns="http://www.w3.org/2000/svg"
 width="700.000000pt" height="700.000000pt" viewBox="0 0 700.000000 700.000000"
 preserveAspectRatio="xMidYMid meet">
<metadata>
Created by potrace 1.14, written by Peter Selinger 2001-2017
</metadata>
<g transform="translate(0.000000,700.000000) scale(0.100000,-0.100000)"
fill="#000000" stroke="none">
<path d="M3280 6994 c-19 -2 -84 -9 -145 -14 -578 -56 -1180 -283 -1660 -625
-237 -169 -531 -446 -709 -670 -416 -521 -673 -1147 -748 -1820 -17 -155 -17
-575 0 -730 52 -469 198 -931 418 -1327 290 -523 731 -983 1239 -1294 439
-269 920 -432 1460 -496 145 -17 576 -17 730 0 822 91 1556 447 2131 1034 203
206 348 390 487 618 274 449 433 916 499 1465 16 136 16 592 0 730 -86 725
-352 1347 -803 1885 -122 145 -351 370 -494 484 -510 407 -1117 661 -1775 742
-117 15 -553 27 -630 18z m-1260 -2779 c0 -563 4 -943 10 -1003 45 -412 220
-675 512 -767 105 -33 257 -48 368 -35 333 38 516 229 597 625 14 70 17 204
20 1083 l4 1002 279 0 280 0 0 -957 c0 -527 -5 -1014 -10 -1083 -34 -434 -180
-736 -457 -944 -155 -116 -328 -192 -530 -233 -120 -24 -439 -24 -568 0 -149
27 -263 64 -390 127 -396 195 -614 535 -665 1039 -6 64 -10 470 -10 1077 l0
974 280 0 280 0 0 -905z m3540 -690 l0 -1595 -280 0 -280 0 0 1595 0 1595 280
0 280 0 0 -1595z"/>
</g>
</svg>
