<svg width="25" height="25" viewBox="0 0 25 25" fill="none" xmlns="http://www.w3.org/2000/svg">
<path d="M17.1406 7.76563C17.3607 7.55609 17.6536 7.44024 17.9575 7.44254C18.2614 7.44484 18.5525 7.5651 18.7695 7.77796C18.9864 7.99081 19.1121 8.27961 19.1201 8.58341C19.1282 8.8872 19.0179 9.18224 18.8125 9.40626L12.5781 17.2031C12.4709 17.3186 12.3415 17.4113 12.1977 17.4756C12.0539 17.5399 11.8986 17.5746 11.741 17.5775C11.5835 17.5804 11.427 17.5515 11.2809 17.4926C11.1348 17.4336 11.002 17.3458 10.8906 17.2344L6.75625 13.1C6.64112 12.9927 6.54877 12.8633 6.48472 12.7196C6.42067 12.5759 6.38623 12.4207 6.38345 12.2633C6.38068 12.106 6.40962 11.9497 6.46856 11.8038C6.5275 11.6578 6.61523 11.5253 6.7265 11.414C6.83778 11.3027 6.97034 11.215 7.11626 11.1561C7.26217 11.0971 7.41847 11.0682 7.57582 11.071C7.73317 11.0737 7.88834 11.1082 8.03209 11.1722C8.17584 11.2363 8.30522 11.3286 8.4125 11.4438L11.6844 14.7141L17.1109 7.80001C17.1207 7.78798 17.1311 7.7765 17.1422 7.76563H17.1406Z" fill="white"/>
</svg>
